<svg width="29" height="29" viewBox="0 0 29 29" fill="none" xmlns="http://www.w3.org/2000/svg">
<path d="M12.3023 3.48001C4.97578 3.48001 0.579956 9.35715 0.579956 12.296C0.579956 15.2349 2.04504 17.4389 4.97578 17.4389C7.90652 17.4389 9.37218 18.1732 9.37218 20.3772C9.37218 23.3154 11.5698 25.5194 14.5005 25.5194C24.0253 25.5194 28.4205 20.3772 28.4205 15.2349C28.42 6.41887 21.0922 3.48001 12.3023 3.48001ZM10.4707 6.41887C10.7115 6.41918 10.95 6.46691 11.1723 6.55936C11.3947 6.65181 11.5967 6.78715 11.7668 6.95767C11.9369 7.12818 12.0717 7.33053 12.1636 7.55315C12.2555 7.77577 12.3026 8.01431 12.3023 8.25515C12.3023 9.27015 11.4822 10.092 10.4707 10.092C9.45918 10.092 8.63906 9.26957 8.63906 8.25515C8.63875 8.01431 8.68589 7.77577 8.77777 7.55315C8.86965 7.33053 9.00449 7.12818 9.17457 6.95767C9.34465 6.78715 9.54666 6.65181 9.76905 6.55936C9.99144 6.46691 10.2299 6.41918 10.4707 6.41887ZM16.331 6.41887C16.5719 6.41918 16.8103 6.46691 17.0327 6.55936C17.2551 6.65181 17.4571 6.78715 17.6271 6.95767C17.7972 7.12818 17.9321 7.33053 18.0239 7.55315C18.1158 7.77577 18.163 8.01431 18.1627 8.25515C18.163 8.49604 18.116 8.73464 18.0241 8.95733C17.9323 9.18002 17.7974 9.38244 17.6273 9.55301C17.4573 9.72359 17.2552 9.85898 17.0328 9.95147C16.8104 10.0439 16.5719 10.0917 16.331 10.092C16.0902 10.0916 15.8518 10.0438 15.6294 9.9513C15.407 9.85878 15.2051 9.72338 15.0351 9.55281C14.865 9.38224 14.7303 9.17985 14.6384 8.9572C14.5466 8.73455 14.4996 8.49599 14.5 8.25515C14.4993 7.76886 14.6919 7.30222 15.0353 6.95787C15.3786 6.61352 15.8447 6.41964 16.331 6.41887ZM22.1925 9.35715C22.4334 9.35738 22.672 9.40508 22.8945 9.49753C23.117 9.58998 23.319 9.72536 23.4892 9.89595C23.6594 10.0665 23.7942 10.269 23.8861 10.4917C23.978 10.7144 24.0251 10.9531 24.0247 11.194C24.0251 11.4349 23.978 11.6735 23.8861 11.8962C23.7942 12.1189 23.6593 12.3213 23.4892 12.4919C23.319 12.6624 23.1169 12.7977 22.8944 12.8901C22.6719 12.9825 22.4334 13.0301 22.1925 13.0303C21.9517 13.0301 21.7132 12.9824 21.4908 12.8899C21.2684 12.7975 21.0665 12.6622 20.8964 12.4916C20.7264 12.3211 20.5916 12.1187 20.4998 11.8961C20.408 11.6734 20.361 11.4348 20.3614 11.194C20.361 10.9532 20.408 10.7146 20.4998 10.4919C20.5916 10.2692 20.7263 10.0668 20.8964 9.89619C21.0664 9.7256 21.2684 9.5902 21.4908 9.49771C21.7132 9.40522 21.9516 9.35746 22.1925 9.35715ZM5.34234 10.8269C5.58312 10.8271 5.8215 10.8748 6.04385 10.9672C6.26621 11.0596 6.46818 11.1949 6.63822 11.3653C6.80827 11.5358 6.94305 11.7381 7.03488 11.9607C7.12671 12.1833 7.17378 12.4218 7.1734 12.6626C7.1734 13.6776 6.35328 14.4994 5.34234 14.4994C4.3314 14.4994 3.5107 13.677 3.5107 12.6626C3.51023 12.1763 3.70293 11.7097 4.04641 11.3655C4.3899 11.0212 4.85604 10.8275 5.34234 10.8269ZM14.5 18.1732C15.7139 18.1732 16.6976 19.1592 16.6976 20.3777C16.6976 21.5946 15.7139 22.5812 14.5 22.5812C13.286 22.5812 12.3023 21.5946 12.3023 20.3777C12.3018 20.0887 12.3582 19.8023 12.4684 19.5351C12.5786 19.2678 12.7403 19.0249 12.9444 18.8201C13.1485 18.6154 13.3909 18.4529 13.6578 18.3419C13.9247 18.2309 14.2109 18.1735 14.5 18.1732Z" fill="black"/>
</svg>
