<svg width="29" height="29" viewBox="0 0 29 29" fill="none" xmlns="http://www.w3.org/2000/svg">
<g clip-path="url(#clip0_45_1156)">
<path d="M28.9955 7.40134C28.9955 6.50959 28.9203 5.62147 28.7073 4.75328C28.3248 3.17188 27.4231 1.96384 26.0737 1.07662C25.3795 0.6235 24.6156 0.345281 23.8036 0.198469C23.18 0.0893721 22.5488 0.0293755 21.9158 0.0190312C21.8687 0.0145 21.8171 0.00453125 21.7645 0H7.23641C7.05244 0.0145 6.86847 0.0235625 6.6845 0.032625C5.78278 0.0842813 4.8865 0.178531 4.03644 0.518375C2.42241 1.15547 1.25607 2.26925 0.576379 3.87422C0.340754 4.41706 0.222035 4.99253 0.137754 5.57797C0.0670664 6.05013 0.0290039 6.52681 0.0154102 7.0035C0.0154102 7.04156 0.00634766 7.07872 0.00634766 7.11678V21.8859L0.0344414 22.3962C0.0960664 23.3831 0.222941 24.36 0.63891 25.2662C1.42282 26.98 2.7396 28.1073 4.54757 28.6502C5.05235 28.8061 5.5816 28.8768 6.10994 28.9239C6.78057 28.99 7.45029 28.9991 8.12091 28.9991H21.45C22.0826 28.9991 22.7152 28.9565 23.3477 28.8768C24.3437 28.749 25.278 28.4562 26.1236 27.8998C27.1244 27.2514 27.9136 26.3243 28.3937 25.2327C28.6203 24.7225 28.7481 24.1806 28.8423 23.6323C28.9792 22.8158 29.0073 21.9893 29.0073 21.1637C29.0027 16.5753 29.0073 11.9879 29.0027 7.39953L28.9955 7.40134ZM21.2353 12.2199V19.121C21.2353 19.6258 21.1646 20.1215 20.938 20.5791C20.5891 21.2914 20.0227 21.74 19.2623 21.9575C18.8411 22.0782 18.407 22.1479 17.9691 22.1651C17.4186 22.1976 16.8752 22.0266 16.4426 21.6845C16.0099 21.3424 15.7182 20.8532 15.6228 20.31C15.5355 19.8212 15.611 19.3173 15.8377 18.8756C16.0645 18.4339 16.43 18.0788 16.878 17.8649C17.265 17.6764 17.6855 17.5631 18.1051 17.4779C18.5627 17.3792 19.0204 17.2894 19.4735 17.1852C19.8088 17.11 20.0254 16.907 20.0916 16.5617C20.1106 16.4865 20.1151 16.4058 20.1151 16.3306V9.75125C20.1135 9.67617 20.1025 9.60159 20.0825 9.52922C20.0354 9.34525 19.9031 9.2365 19.7146 9.24556C19.5206 9.25462 19.3321 9.28816 19.1436 9.32622C18.2229 9.50566 17.303 9.68962 16.3868 9.87812L11.9172 10.7798C11.8982 10.7844 11.8746 10.7943 11.8556 10.7943C11.5203 10.8886 11.4024 11.0399 11.3879 11.3888C11.3834 11.4405 11.3879 11.4931 11.3879 11.5447C11.3834 14.6885 11.3879 17.8323 11.3834 20.9752C11.3834 21.4854 11.3263 21.9856 11.1242 22.4569C10.7889 23.2308 10.1944 23.7175 9.39238 23.9486C8.96837 24.072 8.53056 24.1417 8.08919 24.1561C6.93282 24.1987 5.96947 23.4293 5.77191 22.2919C5.60154 21.3105 6.05013 20.2529 7.16391 19.7807C7.598 19.6013 8.0466 19.5025 8.50425 19.4083L9.54282 19.1962C10.005 19.0974 10.2461 18.8047 10.2696 18.3325V18.1531V7.41947C10.2696 7.26813 10.2887 7.11769 10.3213 6.97087C10.4065 6.6265 10.6521 6.42803 10.9819 6.34738C11.2892 6.26672 11.6054 6.21053 11.9163 6.14438C12.8035 5.96494 13.6862 5.7855 14.5734 5.61059L17.3157 5.05325C18.1277 4.89284 18.9343 4.72791 19.7463 4.5675C20.0109 4.51584 20.2801 4.45875 20.5483 4.43972C20.9208 4.40709 21.1809 4.64272 21.2189 5.02063C21.228 5.11034 21.2334 5.20006 21.2334 5.28978V12.2144L21.2353 12.2199Z" fill="black"/>
</g>
<defs>
<clipPath id="clip0_45_1156">
<rect width="29" height="29" fill="white"/>
</clipPath>
</defs>
</svg>
