<svg width="29" height="29" viewBox="0 0 29 29" fill="none" xmlns="http://www.w3.org/2000/svg">
<path d="M8.05554 4.18889H22.5555V5.4375H8.05554V4.18889Z" fill="black"/>
<path d="M23.3611 6.44445H7.9428C7.73723 6.44153 7.53437 6.39701 7.34647 6.31357C7.15857 6.23013 6.98951 6.10949 6.8495 5.95894C6.70948 5.80839 6.60141 5.63104 6.5318 5.43759C6.46219 5.24413 6.43248 5.03858 6.44447 4.83334C6.44347 4.42488 6.59764 4.0313 6.87581 3.7322C7.15397 3.4331 7.53535 3.25082 7.9428 3.22223H23.3611C23.5748 3.22223 23.7797 3.13735 23.9308 2.98628C24.0818 2.83521 24.1667 2.63032 24.1667 2.41667C24.1667 2.20302 24.0818 1.99813 23.9308 1.84706C23.7797 1.69599 23.5748 1.61111 23.3611 1.61111H7.9428C7.10791 1.64035 6.31701 1.9927 5.73691 2.59385C5.15681 3.19499 4.83285 3.99794 4.83336 4.83334C4.82557 4.9648 4.82557 5.0966 4.83336 5.22806C4.8256 5.29227 4.8256 5.35718 4.83336 5.42139V24.1667C4.83285 25.0021 5.15681 25.805 5.73691 26.4062C6.31701 27.0073 7.10791 27.3597 7.9428 27.3889H23.3611C23.5748 27.3889 23.7797 27.304 23.9308 27.153C24.0818 27.0019 24.1667 26.797 24.1667 26.5833V7.45139V7.37889V7.30639C24.1672 7.08723 24.0841 6.87612 23.9345 6.71601C23.7848 6.55589 23.5798 6.45878 23.3611 6.44445Z" fill="black"/>
</svg>
