<svg width="29" height="29" viewBox="0 0 29 29" fill="none" xmlns="http://www.w3.org/2000/svg">
<path d="M17.11 12.5667L11.0684 8.25291C10.2225 7.64875 9.09879 7.64875 8.26504 8.25291L2.22337 12.5667C1.58296 13.0258 1.20837 13.7508 1.20837 14.5362V24.1667C1.20837 24.8312 1.75212 25.375 2.41671 25.375H7.25004V18.125H12.0834V25.375H16.9167C17.5813 25.375 18.125 24.8312 18.125 24.1667V14.5362C18.125 13.7508 17.7505 13.0258 17.11 12.5667Z" fill="black"/>
<path d="M25.4113 3.625H14.4638C13.1467 3.625 12.0834 4.68833 12.0834 6.00542L12.1921 6.11417C12.2888 6.17458 12.3855 6.22292 12.4821 6.28333L18.5238 10.5971C19.4421 11.2496 20.0946 12.2163 20.3846 13.2917H22.9584V15.7083H20.5417V18.125H22.9584V20.5417H20.5417V25.375H25.4113C26.7284 25.375 27.7917 24.3117 27.7917 22.9946V6.00542C27.7917 4.68833 26.7284 3.625 25.4113 3.625ZM22.9584 10.875H20.5417V8.45833H22.9584V10.875Z" fill="black"/>
</svg>
