<svg width="35" height="35" viewBox="0 0 35 35" fill="none" xmlns="http://www.w3.org/2000/svg">
<path d="M28.0564 21.1543L22.5754 18.5398L20.2577 17.4342C21.2699 16.7965 22.092 15.8123 22.63 14.6268C23.0787 13.6386 23.3108 12.5657 23.3107 11.4803C23.3107 10.8409 23.2092 10.2336 23.0678 9.64775C22.3783 6.80855 20.1611 4.71695 17.4993 4.71695C14.888 4.71695 12.7043 6.734 11.9721 9.49235C11.8031 10.1251 11.6869 10.7831 11.6869 11.4803C11.6869 12.691 11.9697 13.8197 12.4502 14.8015C13.0057 15.9404 13.8292 16.8794 14.8316 17.4832L12.6119 18.5167L6.95312 21.1522C6.46172 21.3825 6.13867 21.9369 6.13867 22.5561V28.7738C6.13867 29.6072 6.71932 30.2827 7.43612 30.2827H15.8407V25.522C15.8418 25.4729 15.8562 25.425 15.8823 25.3834L15.8788 25.3813L17.2554 22.9971L17.2589 22.9992C17.3079 22.9152 17.395 22.8557 17.4993 22.8557C17.6036 22.8557 17.6908 22.9148 17.7398 22.9992L17.7412 22.9981L17.7538 23.0202C17.7555 23.0237 17.758 23.0265 17.7594 23.03L19.1177 25.3823L19.116 25.3834C19.1421 25.4251 19.1565 25.4731 19.1576 25.5223V30.283H27.5622C28.279 30.283 28.86 29.6075 28.86 28.7742V22.5561C28.861 21.939 28.5432 21.3899 28.0564 21.1543ZM19.117 19.5601L19.1205 19.5622L17.7436 21.9464L17.7401 21.9443C17.7162 21.9872 17.6814 22.0231 17.6392 22.0483C17.5969 22.0734 17.5488 22.0869 17.4997 22.0874C17.4505 22.0869 17.4024 22.0734 17.3602 22.0483C17.3179 22.0231 17.2831 21.9872 17.2592 21.9443L17.2575 21.9453L17.2435 21.9212C17.2424 21.9187 17.2403 21.9166 17.2393 21.9142L15.8809 19.5611L15.8823 19.5601C15.8562 19.5184 15.8418 19.4704 15.8407 19.4211C15.8407 19.2654 15.967 19.139 16.1228 19.139H18.8759C19.0316 19.139 19.158 19.2654 19.158 19.4211C19.1574 19.4704 19.1432 19.5184 19.117 19.5601Z" fill="black"/>
</svg>
