<svg width="29" height="29" viewBox="0 0 29 29" fill="none" xmlns="http://www.w3.org/2000/svg">
<path d="M13.0589 13.7657C13.0141 11.6404 12.5637 9.54309 11.7319 7.58669C6.4239 10.0653 2.52472 14.742 1.19187 20.2605C1.97188 22.0477 3.10303 23.6599 4.51815 25.0015C5.8639 20.322 8.91016 16.3145 13.0589 13.7657ZM10.9018 5.90893C10.0127 4.35987 8.87967 2.96429 7.5463 1.77592C2.22658 4.68715 -0.918482 10.7142 0.238996 17.1037C2.19151 12.2458 5.99131 8.21804 10.9018 5.90893ZM21.8686 15.5604C22.3714 9.72627 20.2727 4.01488 16.1689 0.104011C15.3096 0.00463149 13.1525 -0.217511 10.3874 0.600908C13.7705 4.10658 15.7201 8.75074 15.8532 13.6208C17.7162 14.6452 19.7581 15.3036 21.8686 15.5604ZM14.5789 16.1158C12.7606 17.2197 11.1694 18.6601 9.89048 20.3599C14.6841 23.7095 20.6761 24.7501 26.1127 23.1542C27.2821 21.5873 28.1214 19.7994 28.5796 17.8988C27.0337 18.2927 25.4456 18.4968 23.8504 18.5067C20.6585 18.5009 17.4842 17.6825 14.5789 16.1158ZM8.83239 21.9441C7.94382 23.464 7.33 25.1242 6.95587 26.8663C9.54905 28.4579 12.5786 29.1899 15.6125 28.9579C18.6463 28.7259 21.5293 27.5418 23.8504 25.5744C17.2504 26.5155 11.9658 24.1246 8.83239 21.9441ZM19.3724 0.863971C22.6052 4.97944 24.1953 10.2875 23.7334 15.689C25.5144 15.6928 27.2845 15.4126 28.9772 14.8589C28.9772 14.742 28.9947 14.6251 28.9947 14.5082C28.9947 8.20635 24.9786 2.8691 19.3724 0.863971Z" fill="black"/>
</svg>
