<svg width="25" height="19" viewBox="0 0 25 19" fill="none" xmlns="http://www.w3.org/2000/svg">
<path d="M21.645 2.525C20.715 0.974997 19.01 0.199997 17.15 0.199997H7.84999C5.98999 0.199997 4.28499 0.974997 3.35499 2.525C-0.210014 7.95 -0.985014 16.165 1.49499 17.87C3.97499 19.575 9.55499 12.135 12.5 12.135C15.445 12.135 20.87 19.575 23.505 17.87C25.985 16.165 25.21 7.95 21.645 2.525V2.525ZM9.39999 7.95H7.84999V9.5H6.29999V7.95H4.74999V6.4H6.29999V4.85H7.84999V6.4H9.39999V7.95ZM17.77 8.725C17.77 9.5 17.15 10.12 16.375 10.12C15.6 10.12 14.98 9.5 14.98 8.725C14.98 7.95 15.6 7.33 16.375 7.33C17.15 7.33 17.77 7.95 17.77 8.725ZM20.715 5.625C20.715 6.4 20.095 7.02 19.32 7.02C18.545 7.02 17.925 6.4 17.925 5.625C17.925 4.85 18.545 4.23 19.32 4.23C20.095 4.23 20.715 4.85 20.715 5.625Z" fill="black"/>
</svg>
