<svg width="29" height="23" viewBox="0 0 29 23" fill="none" xmlns="http://www.w3.org/2000/svg">
<path d="M12.6875 22.375C12.6875 22.375 10.875 22.375 10.875 20.5625C10.875 18.75 12.6875 13.3125 19.9375 13.3125C27.1875 13.3125 29 18.75 29 20.5625C29 22.375 27.1875 22.375 27.1875 22.375H12.6875ZM19.9375 11.5C21.3796 11.5 22.7627 10.9271 23.7824 9.90739C24.8021 8.88766 25.375 7.50461 25.375 6.0625C25.375 4.62039 24.8021 3.23734 23.7824 2.21761C22.7627 1.19788 21.3796 0.625 19.9375 0.625C18.4954 0.625 17.1123 1.19788 16.0926 2.21761C15.0729 3.23734 14.5 4.62039 14.5 6.0625C14.5 7.50461 15.0729 8.88766 16.0926 9.90739C17.1123 10.9271 18.4954 11.5 19.9375 11.5Z" fill="black"/>
<path fill-rule="evenodd" clip-rule="evenodd" d="M9.454 22.375C9.18531 21.8092 9.0513 21.1888 9.0625 20.5625C9.0625 18.1066 10.295 15.5781 12.5715 13.82C11.4352 13.4699 10.2514 13.2987 9.0625 13.3125C1.8125 13.3125 0 18.75 0 20.5625C0 22.375 1.8125 22.375 1.8125 22.375H9.454Z" fill="black"/>
<path d="M8.15625 11.5C9.35801 11.5 10.5106 11.0226 11.3603 10.1728C12.2101 9.32305 12.6875 8.17051 12.6875 6.96875C12.6875 5.76699 12.2101 4.61445 11.3603 3.76467C10.5106 2.9149 9.35801 2.4375 8.15625 2.4375C6.95449 2.4375 5.80195 2.9149 4.95217 3.76467C4.1024 4.61445 3.625 5.76699 3.625 6.96875C3.625 8.17051 4.1024 9.32305 4.95217 10.1728C5.80195 11.0226 6.95449 11.5 8.15625 11.5Z" fill="black"/>
</svg>
