<svg width="48" height="48" viewBox="0 0 48 48" fill="none" xmlns="http://www.w3.org/2000/svg">
<path d="M0 24C0 10.7452 10.7452 0 24 0V0C37.2548 0 48 10.7452 48 24V24C48 37.2548 37.2548 48 24 48V48C10.7452 48 0 37.2548 0 24V24Z" fill="white" fill-opacity="0.2"/>
<path d="M24 24.75C25.6569 24.75 27 23.4069 27 21.75C27 20.0931 25.6569 18.75 24 18.75C22.3431 18.75 21 20.0931 21 21.75C21 23.4069 22.3431 24.75 24 24.75Z" stroke="white" stroke-width="2" stroke-linecap="round" stroke-linejoin="round"/>
<path d="M31.5 21.75C31.5 28.5 24 33.75 24 33.75C24 33.75 16.5 28.5 16.5 21.75C16.5 19.7609 17.2902 17.8532 18.6967 16.4467C20.1032 15.0402 22.0109 14.25 24 14.25C25.9891 14.25 27.8968 15.0402 29.3033 16.4467C30.7098 17.8532 31.5 19.7609 31.5 21.75V21.75Z" stroke="white" stroke-width="2" stroke-linecap="round" stroke-linejoin="round"/>
</svg>
