<svg width="48" height="48" viewBox="0 0 48 48" fill="none" xmlns="http://www.w3.org/2000/svg">
<path d="M0 24C0 10.7452 10.7452 0 24 0V0C37.2548 0 48 10.7452 48 24V24C48 37.2548 37.2548 48 24 48V48C10.7452 48 0 37.2548 0 24V24Z" fill="white" fill-opacity="0.2"/>
<path d="M20.6697 23.7014C21.4476 25.2919 22.7369 26.5753 24.3309 27.346C24.4475 27.4013 24.5765 27.4252 24.7052 27.4155C24.8339 27.4058 24.9579 27.3627 25.0648 27.2905L27.4119 25.7254C27.5157 25.6562 27.6352 25.6139 27.7594 25.6025C27.8837 25.5911 28.0088 25.6109 28.1235 25.66L32.5144 27.5419C32.6636 27.6052 32.7881 27.7154 32.8693 27.8556C32.9504 27.9959 32.9838 28.1588 32.9643 28.3197C32.8255 29.4057 32.2956 30.4039 31.4739 31.1273C30.6521 31.8508 29.5948 32.2499 28.5 32.25C25.1185 32.25 21.8755 30.9067 19.4844 28.5156C17.0933 26.1245 15.75 22.8815 15.75 19.5C15.7501 18.4051 16.1492 17.3479 16.8726 16.5261C17.5961 15.7044 18.5943 15.1745 19.6803 15.0357C19.8412 15.0162 20.004 15.0496 20.1443 15.1307C20.2846 15.2118 20.3947 15.3364 20.4581 15.4855L22.3416 19.8803C22.3903 19.994 22.4101 20.118 22.3994 20.2412C22.3886 20.3644 22.3475 20.483 22.2798 20.5865L20.7201 22.9696C20.6491 23.0768 20.6072 23.2006 20.5983 23.3288C20.5895 23.4571 20.614 23.5855 20.6697 23.7014V23.7014Z" stroke="white" stroke-width="2" stroke-linecap="round" stroke-linejoin="round"/>
</svg>
